<?xml version="1.0" encoding="UTF-8"?>
<svg width="130px" height="167px" viewBox="0 0 130 167" version="1.1" xmlns="http://www.w3.org/2000/svg" xmlns:xlink="http://www.w3.org/1999/xlink">
    <title>形状结合</title>
    <g id="text1" stroke="none" stroke-width="1" fill="none" fill-rule="evenodd">
        <g id="text2" transform="translate(-323.000000, -109.000000)" fill="#D8D8D8">
            <path d="M421.435029,197 L421.577,197.142 L445,197.142136 L445,254.142136 L453,254.142136 L453,275.142136 L323,275.142136 L323,254.142136 L331,254.142136 L331,197.142136 L354.372,197.142 L354.514719,197 L354.656,197.142 L355,197.142136 L355,197.486 L384.657,227.142 L391.292,227.142 L421,197.435 L421,197.142136 L421.293,197.142 L421.435029,197 Z M445,262.142 L331,262.142 L331,267.142 L445,267.142 L445,262.142 Z M351.343,205.142 L339,205.142 L339,254.142136 L437,254.142136 L437,205.142 L424.605,205.142 L395,234.747 L395,235.142136 L394.605,235.142 L394.564971,235.183766 L394.523,235.142 L381.425,235.142 L381.384776,235.183766 L381.343,235.142 L381,235.142136 L381,234.799 L351.343,205.142 Z M447.39697,155.171573 C448.959067,156.73367 448.959067,159.26633 447.39697,160.828427 L390.828427,217.39697 C389.992501,218.232896 388.87864,218.621492 387.784307,218.562759 C386.689903,218.621492 385.576042,218.232896 384.740115,217.39697 L328.171573,160.828427 C326.609476,159.26633 326.609476,156.73367 328.171573,155.171573 C329.73367,153.609476 332.26633,153.609476 333.828427,155.171573 L387.784,209.127 L441.740115,155.171573 C443.302213,153.609476 445.834872,153.609476 447.39697,155.171573 Z M374,109 L374,130 L402,130 L402,109 L410,109 L410,138 L403,138 L403,192 L401.747,192 L388.656854,205.091883 L387.750058,204.185058 L386.889087,205.045942 L373.844,192 L373,192 L373,138 L366,138 L366,109 L374,109 Z M395,138 L381,138 L381,187.844 L387.795058,194.639058 L395,187.435 L395,138 Z" id="形状结合"></path>
        </g>
    </g>
</svg>