<?xml version="1.0" encoding="UTF-8"?>
<svg width="166px" height="166px" viewBox="0 0 166 166" version="1.1" xmlns="http://www.w3.org/2000/svg" xmlns:xlink="http://www.w3.org/1999/xlink">
    <title>注塑</title>
    <g id="规则" stroke="none" stroke-width="1" fill="none" fill-rule="evenodd">
        <g id="画板" transform="translate(-107.000000, -355.000000)" fill="#D8D8D8">
            <path d="M273,381 L273,521 L107,521 L107,381 L169,381 L169,355 L177,355 L177,381 L190,393.110916 L203,381 L203,355 L211,355 L211,381 L273,381 Z M134,389 L115,389 L115,513 L134,513 L134,389 Z M238,513 L238,503 L142,503 L142,513 L238,513 Z M265,513 L265,389 L246,389 L246,513 L265,513 Z M173.316,389 L142,389 L142,409 L185.080597,409 L187,417 L187.000037,444.282416 C182.938004,445.17968 179.64905,448.135272 178.283042,451.999325 L175.024204,451.999928 C175.016142,451.999976 175.008074,452 175,452 L162,452 C159.790861,452 158,450.209139 158,448 C158,447.830753 158.010511,447.663961 158.030917,447.500241 C158.010554,447.336716 158,447.16959 158,447 L158,417 L142,417 L142,495 L158,495 L158,465 C158,464.83041 158.010554,464.663284 158.030917,464.499759 C158.010511,464.336039 158,464.169247 158,464 C158,461.790861 159.790861,460 162,460 L162,460 L170.000223,460.000834 C170.000155,460.0005 170.000087,460.000166 170.000019,459.999832 L178.282775,459.99992 C179.930098,464.660731 184.375076,468 189.599981,468 C194.824886,468 199.269863,464.660731 200.917186,459.99992 L209.199942,459.999832 L209.199,460 L218,460 L218.19964,460.004895 C220.316032,460.108921 222,461.857805 222,464 C222,464.169247 221.989489,464.336039 221.969083,464.499759 C221.989446,464.663284 222,464.83041 222,465 L222,465 L222,495 L238,495 L238,417 L222,417 L222,447 C222,447.16959 221.989446,447.336716 221.969083,447.500241 C221.989489,447.663961 222,447.830753 222,448 C222,450.142195 220.316032,451.891079 218.19964,451.995105 L218,452 L205,452 L204.98,451.999 L200.916919,451.999325 C199.64189,448.392624 196.691528,445.577405 193.000912,444.488745 L193,417 L194.919403,409 L238,409 L238,389 L206.579,389 L190,404 L189.5,404 L173.316,389 Z M173.598946,468.000572 L166,468 L166,495 L179,495 L179.000201,472.963239 C176.908641,471.653529 175.076642,469.967726 173.598946,468.000572 Z M189.599981,476 C188.719096,476 187.851513,475.943051 187.000711,475.832635 L187,495 L193,495 L193.000997,475.711997 C191.895655,475.901354 190.759338,476 189.599981,476 Z M214,468 L205.601016,468.000572 C204.315072,469.712459 202.760811,471.211277 201.000672,472.434585 L201,495 L214,495 L214,468 Z M214,417 L201,417 L201.00068,439.56542 C202.761052,440.788892 204.315491,442.287945 205.601533,444.000117 L214,444 L214,417 Z M179,417 L166,417 L166,444 L173.598493,444.000031 C175.07628,442.032602 176.908459,440.346576 179.000255,439.036727 L179,417 Z" id="注塑"></path>
        </g>
    </g>
</svg>