<?xml version="1.0" encoding="UTF-8"?>
<svg width="165px" height="166px" viewBox="0 0 165 166" version="1.1" xmlns="http://www.w3.org/2000/svg" xmlns:xlink="http://www.w3.org/1999/xlink">
    <title>CNC</title>
    <g id="规则" stroke="none" stroke-width="1" fill="none" fill-rule="evenodd">
        <g id="画板" transform="translate(-101.000000, -109.000000)" fill="#D8D8D8">
            <path d="M262,267 C264.209139,267 266,268.790861 266,271 C266,273.209139 264.209139,275 262,275 L105,275 C102.790861,275 101,273.209139 101,271 C101,268.790861 102.790861,267 105,267 L262,267 Z M175,259 C176.656854,259 178,260.343146 178,262 C178,263.656854 176.656854,265 175,265 C173.343146,265 172,263.656854 172,262 C172,260.343146 173.343146,259 175,259 Z M193,259 C194.656854,259 196,260.343146 196,262 C196,263.656854 194.656854,265 193,265 C191.343146,265 190,263.656854 190,262 C190,260.343146 191.343146,259 193,259 Z M211,259 C212.656854,259 214,260.343146 214,262 C214,263.656854 212.656854,265 211,265 C209.343146,265 208,263.656854 208,262 C208,260.343146 209.343146,259 211,259 Z M157,259 C158.656854,259 160,260.343146 160,262 C160,263.656854 158.656854,265 157,265 C155.343146,265 154,263.656854 154,262 C154,260.343146 155.343146,259 157,259 Z M243,109 L249.928203,113 L234.964,138.918 L234.964102,138.990381 L226,138.99 L226,146 L230,146 C232.209139,146 234,147.790861 234,150 L234,166 C234,168.209139 232.209139,170 230,170 L226,170 L226,182 C226,184.209139 224.209139,186 222,186 L205,186 L205,220.812 L205.142136,220.954058 L189.626,236.469 L189.667262,236.510408 L188,238.177 L188,258 C188,260.209139 186.209139,262 184,262 C181.790861,262 180,260.209139 180,258 L180,238.238 L178.272078,236.510408 L178.313,236.47 L162.797204,220.954058 L163,220.751 L163,186 L146,186 C143.790861,186 142,184.209139 142,182 L142,170 L136,170 C133.790861,170 132,168.209139 132,166 L132,150 C132,147.790861 133.790861,146 136,146 L142,146 L142,138.99 L131.964102,138.990381 L131.964,138.918 L117,113 L123.928203,109 L136.624,130.99 L230.304,130.99 L243,109 Z M166,253 C167.656854,253 169,254.343146 169,256 C169,257.656854 167.656854,259 166,259 C164.343146,259 163,257.656854 163,256 C163,254.343146 164.343146,253 166,253 Z M202,253 C203.656854,253 205,254.343146 205,256 C205,257.656854 203.656854,259 202,259 C200.343146,259 199,257.656854 199,256 C199,254.343146 200.343146,253 202,253 Z M223,253 C224.656854,253 226,254.343146 226,256 C226,257.656854 224.656854,259 223,259 C221.343146,259 220,257.656854 220,256 C220,254.343146 221.343146,253 223,253 Z M145,253 C146.656854,253 148,254.343146 148,256 C148,257.656854 146.656854,259 145,259 C143.343146,259 142,257.656854 142,256 C142,254.343146 143.343146,253 145,253 Z M157,247 C158.656854,247 160,248.343146 160,250 C160,251.656854 158.656854,253 157,253 C155.343146,253 154,251.656854 154,250 C154,248.343146 155.343146,247 157,247 Z M211,247 C212.656854,247 214,248.343146 214,250 C214,251.656854 212.656854,253 211,253 C209.343146,253 208,251.656854 208,250 C208,248.343146 209.343146,247 211,247 Z M235,247 C236.656854,247 238,248.343146 238,250 C238,251.656854 236.656854,253 235,253 C233.343146,253 232,251.656854 232,250 C232,248.343146 233.343146,247 235,247 Z M133,247 C134.656854,247 136,248.343146 136,250 C136,251.656854 134.656854,253 133,253 C131.343146,253 130,251.656854 130,250 C130,248.343146 131.343146,247 133,247 Z M148,241 C149.656854,241 151,242.343146 151,244 C151,245.656854 149.656854,247 148,247 C146.343146,247 145,245.656854 145,244 C145,242.343146 146.343146,241 148,241 Z M220,241 C221.656854,241 223,242.343146 223,244 C223,245.656854 221.656854,247 220,247 C218.343146,247 217,245.656854 217,244 C217,242.343146 218.343146,241 220,241 Z M197,186 L171,186 L171,217.843 L183.97,230.813 L197,217.782 L197,186 Z M219,170 L150,170 L150,178 L219,178 L219,170 Z M147,154 L139,154 L139,162 L147,162 L147,154 Z M163,154 L155,154 L155,162 L163,162 L163,154 Z M179,154 L171,154 L171,162 L179,162 L179,154 Z M195,154 L187,154 L187,162 L195,162 L195,154 Z M211,154 L203,154 L203,162 L211,162 L211,154 Z M227,154 L219,154 L219,162 L227,162 L227,154 Z M218,138.99 L150,138.99 L150,146 L218,146 L218,138.99 Z" id="CNC"></path>
        </g>
    </g>
</svg>