<?xml version="1.0" encoding="UTF-8"?>
<svg width="165px" height="148px" viewBox="0 0 165 148" version="1.1" xmlns="http://www.w3.org/2000/svg" xmlns:xlink="http://www.w3.org/1999/xlink">
    <title>3D</title>
    <g id="规则" stroke="none" stroke-width="1" fill="none" fill-rule="evenodd">
        <g id="画板" transform="translate(-561.000000, -120.000000)" fill="#D8D8D8">
            <path d="M726,120 L726,268 L703,268 C701.84339,268 700.801436,267.509104 700.071119,266.724296 C699.839064,266.573986 699.618351,266.396526 699.414214,266.192388 L691.221,258 L595.656,258 L588.171573,265.485281 C587.939991,265.716863 587.687078,265.914113 587.419159,266.07703 C586.717892,267.229631 585.448911,268 584,268 L561,268 L561,120 L726,120 Z M718,128 L569,128 L569,260 L582.35233,260.000542 C582.404441,259.941976 582.458571,259.884575 582.514719,259.828427 L590.292893,252.050253 C590.442404,251.900742 590.600806,251.765541 590.766396,251.64465 C591.49352,250.648058 592.671079,250 594,250 L693,250 C694.420878,250 695.668722,250.740848 696.378323,251.857338 C696.448906,251.918106 696.518253,251.982719 696.585786,252.050253 L704.536,260 L718,260 L718,128 Z M694,138 C701.731986,138 708,144.268014 708,152 L708,224 C708,231.731986 701.731986,238 694,238 L594,238 C586.268014,238 580,231.731986 580,224 L580,152 C580,144.268014 586.268014,138 594,138 L694,138 Z M629,165 L588,165 L588,221 C588,225.334914 591.447838,228.864543 595.750821,228.996193 L596,229 L599,229 L602.985928,221 L685.186478,221 L689,229 L692,229 C696.334914,229 699.864543,225.552162 699.996193,221.249179 L700,221 L700,165 L660,165 L660,172 L659.595,172 L645.757359,185.838835 L645.634,185.715 L644.096194,187.253048 L628.539845,171.696699 L629,171.235 L629,165 Z M631.9,188.04 L632.265579,188.042541 C634.787314,188.07812 636.525455,188.487273 637.48,189.27 C638.48,190.09 638.98,191.7 638.98,194.1 L638.98,194.1 L638.98,196.92 L638.975433,197.239619 C638.926713,198.917128 638.488235,200.160588 637.66,200.97 C636.78,201.83 635.22,202.44 632.98,202.8 C637.78,203.28 640.18,205.38 640.18,209.1 L640.18,209.1 L640.18,212.34 L640.176901,212.673347 C640.133512,214.972934 639.634545,216.561818 638.68,217.44 C637.6,218.48 635.6,219 632.68,219 L632.68,219 L614.68,219 L614.314421,218.997459 C611.792686,218.96188 610.054545,218.552727 609.1,217.77 C608.1,216.95 607.6,215.34 607.6,212.94 L607.6,212.94 L607.6,210.42 L613.96,209.1 L613.96,213.42 L630.64,213.42 L630.889867,213.417333 C632.027289,213.392444 632.764,213.193333 633.1,212.82 C633.46,212.42 633.64,211.7 633.64,210.66 L633.64,210.66 L633.64,208.38 L633.6368,208.138133 C633.606933,207.038044 633.368,206.338667 632.92,206.04 C632.44,205.72 631.68,205.56 630.64,205.56 L630.64,205.56 L620.2,205.56 L620.2,200.52 L629.5,200.52 L629.747593,200.516667 C631.118086,200.478889 631.935556,200.12 632.2,199.44 C632.36,199.04 632.44,198.46 632.44,197.7 L632.44,197.7 L632.44,196.14 L632.436458,195.886458 C632.410486,194.980486 632.241667,194.335 631.93,193.95 C631.59,193.53 630.78,193.32 629.5,193.32 L629.5,193.32 L614.2,193.32 L614.2,197.16 L608.08,196.02 L608.08,194.1 L608.083099,193.777624 C608.126488,191.555269 608.625455,190.052727 609.58,189.27 C610.58,188.45 612.44,188.04 615.16,188.04 L615.16,188.04 L631.9,188.04 Z M665.12,188.04 L665.636309,188.043691 C671.104224,188.122443 675.312121,189.461212 678.26,192.06 C681.3,194.74 682.82,198.5 682.82,203.34 C682.82,206.42 682.12,209.22 680.72,211.74 C679.2,214.38 677.08,216.28 674.36,217.44 C671.88,218.48 668.18,219 663.26,219 L663.26,219 L645.2,219 L645.2,188.04 L665.12,188.04 Z M665.18,193.56 L652.4,193.56 L652.4,213.18 L661.7,213.18 C666.46,213.18 669.88,212.48 671.96,211.08 C674.24,209.56 675.38,206.94 675.38,203.22 C675.38,196.78 671.98,193.56 665.18,193.56 L665.18,193.56 Z M652,165 L637,165 L637,168.843 L644.219,176.062 L652,168.281 L652,165 Z M692,147 L660,147 L660,157 L700,157 L700,155 C700,150.581722 696.418278,147 692,147 Z M629,147 L596,147 C591.665086,147 588.135457,150.447838 588.003807,154.750821 L588,155 L588,157 L629,157 L629,147 Z M652,147 L637,147 L637,157 L652,157 L652,147 Z" id="3D"></path>
        </g>
    </g>
</svg>