<?xml version="1.0" standalone="no"?><!DOCTYPE svg PUBLIC "-//W3C//DTD SVG 1.1//EN" "http://www.w3.org/Graphics/SVG/1.1/DTD/svg11.dtd"><svg t="1576501671833" class="icon" viewBox="0 0 1024 1024" version="1.1" xmlns="http://www.w3.org/2000/svg" p-id="2679" xmlns:xlink="http://www.w3.org/1999/xlink" width="200" height="200"><defs><style type="text/css"></style></defs><path d="M989.4 417.4c0-21.3-8.3-41.2-23.3-56.2L712.2 107.3c-15-15-35-23.3-56.3-23.3h-0.1c-21.3 0-41.2 8.3-56.2 23.3l-85.8 85.8-85.8-85.8C413 92.2 393 84 371.8 84h-0.1c-21.3 0-41.2 8.3-56.3 23.3L61.7 361.1c-15 15-23.3 35-23.3 56.3 0 21.3 8.3 41.2 23.3 56.3l131.9 131.9c1.2 4.8 3.2 9.5 6.9 13.3l253.9 253.9c15 15 35 23.3 56.3 23.3h0.1c1.1 0 2-0.6 3.1-0.6s2 0.6 3.1 0.6h0.1c21.3 0 41.2-8.3 56.3-23.3l253.9-253.9c5.6-5.6 9.3-12.5 13-19.4l125.9-125.9c14.9-14.9 23.2-34.9 23.2-56.2z m-895 0c0-6.3 2.5-12.2 6.9-16.7l253.9-253.9c4.5-4.5 10.4-6.9 16.7-6.9 6.3 0 12.2 2.4 16.7 6.9l85.9 85.9-118.7 118.7 27.2 27.3c23.4 23.4 54.4 36.2 87.4 36.2 33.1 0 64.1-12.8 87.4-36.2l31.3-31.3L787.7 546c4.5 4.5 6.9 10.4 6.9 16.7 0 1.5-0.6 2.8-0.8 4.2l-41 41-56.2-56.3c-10.9-10.9-28.6-10.9-39.6 0-10.9 10.9-10.9 28.6 0 39.6l56.2 56.3-35.3 35.3-56.2-56.3c-10.9-10.9-28.6-10.9-39.6 0-10.9 10.9-10.9 28.6 0 39.6l56.2 56.3-36.5 36.5-56.2-56.3c-10.9-10.9-28.6-10.9-39.6 0-10.9 10.9-10.9 28.6 0 39.6l56.2 56.3-34.9 34.9c-3.6 3.7-8.4 5.6-13.4 6.3-5-0.7-9.8-2.6-13.5-6.3L101.3 434.1c-4.5-4.5-6.9-10.4-6.9-16.7z m832.1 16.7L838 522.6c-3.3-5.6-6.1-11.5-10.8-16.2L627.1 306.3c4.2-10.1 2.2-22.2-6.1-30.4-10.9-10.9-28.6-10.9-39.6 0l-63.3 63.3c-21.3 21.3-56.2 25.6-81.8 10.7l167.4-167.4c0.1-0.1 0.2-0.3 0.3-0.5l35.1-35.1c4.4-4.5 10.3-6.9 16.6-6.9 6.3 0 12.2 2.5 16.7 6.9l253.9 253.9c4.5 4.5 6.9 10.4 6.9 16.7 0.3 6.2-2.2 12.1-6.7 16.6z" p-id="2680"></path></svg>